<?xml version="1.0" encoding="UTF-8" standalone="no"?>
<!-- Created with Inkscape (http://www.inkscape.org/) -->

<svg
   xmlns:dc="http://purl.org/dc/elements/1.1/"
   xmlns:cc="http://creativecommons.org/ns#"
   xmlns:rdf="http://www.w3.org/1999/02/22-rdf-syntax-ns#"
   xmlns:svg="http://www.w3.org/2000/svg"
   xmlns="http://www.w3.org/2000/svg"
   xmlns:sodipodi="http://sodipodi.sourceforge.net/DTD/sodipodi-0.dtd"
   xmlns:inkscape="http://www.inkscape.org/namespaces/inkscape"
   id="svg3336"
   version="1.1"
   inkscape:version="0.91 r13725"
   width="300"
   height="300"
   viewBox="0 0 300 300"
   sodipodi:docname="panacealogo.svg"
   inkscape:export-filename="C:\Users\Manuel Mena\Desktop\tetraktys.info0.1\polymer components\0.7\favicon.png"
   inkscape:export-xdpi="15"
   inkscape:export-ydpi="15">
  <metadata
     id="metadata3342">
    <rdf:RDF>
      <cc:Work
         rdf:about="">
        <dc:format>image/svg+xml</dc:format>
        <dc:type
           rdf:resource="http://purl.org/dc/dcmitype/StillImage" />
        <dc:title></dc:title>
      </cc:Work>
    </rdf:RDF>
  </metadata>
  <defs
     id="defs3340" />
  <sodipodi:namedview
     pagecolor="#ffffff"
     bordercolor="#666666"
     borderopacity="1"
     objecttolerance="10"
     gridtolerance="10"
     guidetolerance="10"
     inkscape:pageopacity="0"
     inkscape:pageshadow="2"
     inkscape:window-width="1366"
     inkscape:window-height="705"
     id="namedview3338"
     showgrid="false"
     inkscape:zoom="0.81906615"
     inkscape:cx="288.74347"
     inkscape:cy="241.29941"
     inkscape:window-x="-8"
     inkscape:window-y="-8"
     inkscape:window-maximized="1"
     inkscape:current-layer="svg3336" />
  <g
     id="g3375"
     transform="translate(-434.64133,150.4038)">
    <path
       style="fill:#9cee9f"
       d="m 460.36695,141.63756 c -0.98352,-2.56303 -0.70835,-9.38224 0.54779,-13.57485 2.86812,-9.57293 12.28327,-16.2834 32.77315,-23.35844 12.61713,-4.35662 14.7058,-5.38882 16.23209,-8.02175 C 512.53557,92.1705 520.76493,61.6931 521.44421,54.00258 522.29489,44.37154 519.83033,40.0236 503.1364,21.70427 481.38071,-2.16965 478.46424,-6.4077 475.24717,-18.82279 472.92159,-27.79748 471.59745,-29.968 462.65853,-39.45791 l -7.90435,-8.391576 0,-21.508305 c 0,-18.73862 0.22427,-21.8579 1.74158,-24.223122 2.58244,-4.02555 44.28835,-49.515537 46.69284,-50.929377 1.48365,-0.87239 9.97206,-1.22455 30.12972,-1.25 l 28.06414,-0.0354 9.41699,11 c 5.17934,6.05 10.07182,11 10.87217,11 0.80036,0 9.29019,-4.35229 18.86631,-9.67176 17.23151,-9.57199 25.7515,-12.92791 29.6666,-11.68531 1.11136,0.35274 3.73117,2.01594 5.8218,3.69602 4.33641,3.48483 4.50973,3.46489 19.16361,-2.205 6.40205,-2.47708 8.23808,-2.83713 9.5,-1.86301 0.86033,0.66412 3.99323,3.32904 6.96199,5.92205 2.96877,2.59301 8.44404,6.31533 12.16727,8.27184 7.49517,3.9386 13.83904,10.32326 19.47371,19.59892 4.66399,7.67777 5.23972,11.38118 2.56657,16.509732 -3.43493,6.590042 -4.03806,12.46879 -4.66059,45.426518 -0.67646,35.81308 -1.24389,40.47536 -5.41216,44.46881 -4.61195,4.41853 -6.8002,11.07179 -11.52163,35.03102 -5.36992,27.24995 -6.01987,29.74972 -8.2567,31.75587 -1.30095,1.16679 -6.64328,1.99508 -20.67541,3.2056 -10.40666,0.89775 -19.29416,1.86278 -19.75,2.1445 -0.45585,0.28173 -0.82881,6.68555 -0.82881,14.23071 0,17.07573 0.27473,17.60809 9.57891,18.56133 9.02655,0.9248 28.43641,4.80188 48.6616,9.72007 15.11737,3.67611 16.99194,4.36963 19.33379,7.15276 2.49513,2.96529 2.58066,3.4886 2.2595,13.82489 -0.18359,5.90861 -0.70873,11.11677 -1.16697,11.57369 -0.45825,0.45691 -57.445,0.95003 -126.63723,1.09583 -114.44867,0.24114 -125.85936,0.12093 -126.41683,-1.33179 z"
       id="path3389"
       inkscape:connector-curvature="0" />
    <path
       style="fill:#74f575"
       d="m 460.9657,135.80998 c 0.93895,-14.63077 10.04163,-23.11486 31.82372,-29.66108 4.10562,-1.23387 9.7934,-3.26144 12.63952,-4.50571 l 5.17476,-2.26231 3.14974,-9.83282 c 4.60555,-14.37759 9.00074,-33.11536 9.00074,-38.37236 0,-6.706 -3.66512,-13.12057 -14.24924,-24.93857 -20.9767,-23.42214 -23.69171,-26.63438 -26.6019,-31.47375 -1.67329,-2.78251 -3.99111,-8.65911 -5.15071,-13.05911 -2.53389,-9.61458 -5.03739,-13.64828 -14.58516,-23.5 l -7.26861,-7.5 0.58577,-21.421967 0.58578,-21.421967 3.59203,-4.067939 c 7.20571,-8.160377 43.1026,-47.123247 44.53442,-48.338127 1.78533,-1.51483 57.04348,-1.84515 56.11041,-0.33541 -0.31089,0.50302 -0.21644,1.06552 0.20989,1.25 0.42633,0.18448 4.71188,4.90274 9.52346,10.48503 4.81158,5.5823 9.36503,10.38628 10.11878,10.67552 0.75375,0.28924 8.28349,-3.29084 16.73276,-7.95574 20.01056,-11.04797 23.4503,-12.60988 28.95034,-13.14573 4.03525,-0.39314 5.01502,-0.0721 8.13202,2.66466 4.42121,3.88188 6.74882,3.89784 16.27996,0.11167 4.15363,-1.65 8.21535,-3 9.02603,-3 0.81068,0 1.47397,-0.45 1.47397,-1 0,-0.55 0.9,-1 2,-1 1.1,0 1.8875,0.35013 1.75,0.77808 -0.51606,1.60613 11.49494,11.32012 18.12572,14.65933 7.507,3.78047 12.9907,9.43851 19.46351,20.08231 4.16208,6.84407 4.49737,9.92009 1.68268,15.437325 -3.0235,5.926563 -3.8411,14.815955 -4.46928,48.592845 -0.3176,17.07745 -1.00021,32.52392 -1.51689,34.3255 -0.51669,1.80159 -2.50924,5.01319 -4.42789,7.13691 -4.49732,4.978 -6.50745,11.59293 -11.6192,38.23642 -4.70424,24.51942 -5.48005,27.34213 -7.75482,28.21504 -0.91818,0.35235 -9.55892,1.11445 -19.20163,1.69356 -12.20889,0.73323 -18.2433,1.50176 -19.87419,2.53114 -2.30826,1.4569 -2.33707,1.68714 -2,15.98439 0.39664,16.82421 0.77941,17.53933 10.03421,18.74648 8.44951,1.10212 35.01115,6.42963 50.93727,10.21658 19.21481,4.56894 19.46009,4.8053 19.13268,18.43743 -0.37879,15.77195 16.6334,13.92666 -128.39368,13.92666 l -124.1315,0 0.47453,-7.39429 z"
       id="path3387"
       inkscape:connector-curvature="0" />
    <path
       style="fill:#4cd054"
       d="m 461.02392,135.82077 c 0.66137,-8.74494 2.09308,-11.85268 7.94573,-17.24747 5.24172,-4.83165 12.07021,-8.1812 25.93088,-12.71979 17.15169,-5.61621 15.72534,-4.23267 20.25744,-19.64924 9.01281,-30.65833 9.60232,-38.96261 3.41635,-48.12533 -1.99571,-2.95607 -9.0499,-11.32287 -15.67598,-18.59289 -20.09905,-22.05234 -23.4002,-26.89 -25.27689,-37.04195 -1.55317,-8.40188 -4.08978,-12.52591 -14.01472,-22.78522 l -8.96457,-9.266571 1.18513,-21.34402 c 0.65182,-11.73921 1.46452,-21.85055 1.80601,-22.469644 1.92042,-3.481611 44.9663,-49.545285 46.70964,-49.984275 1.14882,-0.28929 12.62382,-0.38291 25.5,-0.20804 28.73919,0.3903 29.55771,0.6585 38.50302,12.61601 3.16897,4.23606 6.24471,8.03254 6.83499,8.43662 2.90237,1.98683 7.68923,0.44335 19.59775,-6.31912 27.17124,-15.42967 30.22575,-16.3188 37.40362,-10.88775 4.9019,3.70897 6.67276,3.7059 16.07186,-0.0278 4.15363,-1.65 9.09969,-3 10.99124,-3 4.0773,0 9.11975,3.98049 12.06587,9.52477 1.84825,3.47819 2.14065,3.62973 6.00266,3.11097 6.71753,-0.90233 12.65071,4.16817 20.89219,17.85449 5.25067,8.71962 5.82466,11.65327 3.59752,18.387111 -3.01181,9.10636 -3.18193,11.073887 -3.98772,46.122659 -0.84081,36.57175 -1.0526,37.90221 -6.91031,43.40999 -5.05766,4.75552 -7.88931,15.18879 -12.64483,46.59001 -1.45765,9.625 -3.18045,18.01704 -3.82844,18.64897 -0.7157,0.69796 -8.44019,1.54734 -19.67818,2.1638 -10.175,0.55815 -19.3,1.33156 -20.27778,1.71867 -0.97778,0.38712 -2.2929,1.66342 -2.92249,2.83621 -1.36211,2.53734 -2.33897,20.94442 -1.38217,26.04459 0.87471,4.6626 3.63672,6.05981 15.87079,8.02847 9.95268,1.60154 48.17075,9.59204 57.61943,12.04686 2.97427,0.77273 5.77988,1.99165 6.23468,2.7087 0.94984,1.49754 1.13198,21.17774 0.22725,24.55373 l -0.60297,2.25 -124.52771,0 -124.52771,0 0.55842,-7.3835 z m 143.23026,-4.92668 8,-1.18982 0.26508,-29.87989 0.26508,-29.87989 -10.26508,0.85328 c -5.64579,0.4693 -13.16267,0.86525 -16.70418,0.87989 l -6.4391,0.0266 -8.5609,-13.72409 c -4.70849,-7.54824 -9.3484,-14.50717 -10.3109,-15.46428 -1.66426,-1.65495 -1.75,-1.60699 -1.75,0.97894 0,4.13091 4.8449,51.1899 7.05581,68.53385 2.08332,16.343 2.82552,18.74309 6.25956,20.24186 2.558,1.11643 20.61586,0.34414 32.18463,-1.37646 z m 47.10478,1.30683 c 17.91017,-1.39355 31.39522,-3.10489 31.39522,-3.98427 0,-1.7207 -26.85992,-9.88205 -40.71131,-12.37008 -5.00025,-0.89816 -6.28869,1.13613 -6.28869,9.92913 0,5.58261 0.33666,7.42857 1.35478,7.42857 0.74513,0 7.15763,-0.45151 14.25,-1.00335 z m -162.60478,-1.96998 c 5.97892,-1.5458 8.15913,-2.65481 10.75,-5.46818 1.95638,-2.1244 3.25,-4.58093 3.25,-6.17161 0,-2.54651 -0.15437,-2.61833 -4.25,-1.9772 -5.7682,0.90297 -18.65711,7.47997 -21.04806,10.74049 -3.78584,5.16273 -0.64133,5.96332 11.29806,2.8765 z m 51.75769,-1.5695 c 1.99067,-1.39432 2.14755,-2.14032 1.62987,-7.75 -1.51269,-16.39168 -4.96934,-35.70717 -6.39006,-35.70717 -1.10855,0 -3.39764,7.13402 -6.41739,20 -3.3331,14.20106 -4.14481,21.61465 -2.57383,23.50756 1.67674,2.02036 10.84296,1.98677 13.75141,-0.0504 z M 657.83138,33.20427 c 0.85165,-27.29654 4.68214,-39.71249 15.51492,-50.28919 3.85747,-3.76629 5.84179,-6.61139 6.49778,-9.31646 0.51941,-2.14189 1.23107,-13.00685 1.58146,-24.14435 0.61464,-19.537091 0.56934,-20.25 -1.28683,-20.25 -1.05814,0 -8.20203,4.095787 -15.87531,9.101748 -11.62766,7.585762 -13.69195,9.293001 -12.39366,10.25 2.08724,1.538546 3.88444,5.046722 3.88444,7.582512 0,2.71208 1.1408,2.60922 3.92446,-0.35385 4.53514,-4.827442 11.07554,-5.843114 11.07554,-1.71995 0,2.56155 -7.87361,11.20498 -13.75681,15.10185 -8.88127,5.88271 -12.51867,2.79322 -12.02346,-10.21231 0.1623,-4.2625 0.13604,-7.75 -0.0584,-7.75 -1.52765,0 -75.01026,50.90808 -77.07679,53.3981 -0.95945,1.15607 -0.85773,2.14655 0.4909,4.78007 3.00365,5.86531 15.23189,21.45111 23.28819,29.68253 6.77968,6.92704 8.60923,8.22507 13.72919,9.74056 8.08855,2.39418 17.08577,3.14938 35.90715,3.0139 l 16.00003,-0.11516 0.5772,-18.5 z m -77.96756,-60.63356 c 50.85036,-33.425034 73.63522,-48.226489 86.39036,-56.120739 19.03113,-11.778503 22.97984,-14.62186 23.27194,-16.757461 0.15698,-1.14772 -1.64586,-4.41902 -4.26462,-7.73824 -5.29507,-6.71138 -6.97167,-7.0686 -14.72826,-3.13804 -5.73454,2.90591 -29.73333,18.792836 -63.77906,42.221018 -48.30605,33.241262 -58.4956,42.033212 -60.3801,52.098432 -0.69953,3.73621 0.15017,10.06859 1.35103,10.06859 0.4116,0 14.87402,-9.2851 32.13871,-20.63356 z m -39.82609,-49.51819 c 5.10953,-2.734538 12.84066,-8.057377 12.37672,-8.521309 -0.5936,-0.593602 -14.27648,7.243049 -15.16959,8.688147 -0.80475,1.302111 0.15527,1.244762 2.79287,-0.166838 z"
       id="path3385"
       inkscape:connector-curvature="0" />
    <path
       style="fill:#2bb133"
       d="m 461.5104,137.45427 c 0.67801,-9.2653 2.05434,-13.06056 6.26238,-17.2686 5.08737,-5.08737 11.39273,-8.20991 28.33904,-14.03406 7.62171,-2.61944 14.3196,-5.22458 14.88421,-5.78919 1.18993,-1.18993 9.84767,-31.54345 11.75366,-41.20766 2.631,-13.34034 0.26165,-18.26921 -19.06104,-39.65193 -13.64597,-15.1008 -20.33417,-23.23703 -22.42482,-27.2799 -0.83644,-1.61749 -2.20463,-6.22089 -3.04043,-10.22978 -1.86415,-8.94134 -5.79419,-14.9936 -16.08157,-24.7656 l -7.41441,-7.042976 1.40319,-21.496985 1.40319,-21.496986 3.81501,-4.243166 c 34.31073,-38.161397 41.66044,-45.700397 45.20037,-46.364487 1.99264,-0.37382 13.34134,-0.24399 25.21931,0.28851 26.19791,1.17447 27.08325,1.51041 36.45516,13.83281 8.41178,11.06 8.5713,11.05965 28.53053,-0.0622 27.29982,-15.21225 26.52743,-14.98423 33.80329,-9.97932 2.83167,1.94785 6.09688,3.54154 7.25602,3.54154 1.15913,0 5.47898,-1.35 9.59966,-3 12.09966,-4.84494 17.03035,-3.79902 21.99042,4.6647 3.20128,5.46258 5.36929,6.73954 8.79346,5.17938 3.97353,-1.81046 6.79745,0.12418 13.68635,9.3764 10.50638,14.11071 11.27926,17.35766 7.32654,30.77952 -1.25906,4.275288 -1.81145,13.070944 -2.48071,39.5 -0.47353,18.7 -1.17113,35.125 -1.55021,36.5 -0.37909,1.375 -2.15517,4.075 -3.94685,6 -1.79168,1.925 -3.98836,4.95209 -4.8815,6.72686 -2.5095,4.98664 -6.22036,21.9607 -9.13242,41.77314 -1.45511,9.9 -3.03959,18.41229 -3.52106,18.91621 -0.48147,0.50391 -9.2152,1.23938 -19.40827,1.63438 -20.87008,0.80875 -22.73089,1.3933 -24.47953,7.68995 -1.34385,4.83905 -1.36712,23.80809 -0.0323,26.30228 1.63178,3.04901 3.52494,3.64117 25.57995,8.00109 31.26923,6.18143 51.4765,10.77707 53.02002,12.05808 1.03905,0.86231 1.37714,4.30445 1.37714,14.02045 l 0,12.87756 -124.33227,0 -124.33228,0 0.42077,-5.75 z m 143.74378,-5.54827 8,-1.20173 0.26494,-30.43506 c 0.14572,-16.73928 -0.0793,-30.74101 -0.5,-31.11495 -0.42072,-0.37393 -6.16494,-0.0918 -12.76494,0.62692 -6.6,0.71874 -13.8,1.32849 -16,1.35499 l -4,0.0482 -8.22309,-13.24004 c -9.3142,-14.99685 -12.75498,-19.57991 -13.86974,-18.47425 -1.55221,1.53954 6.62929,81.63463 9.19206,89.98824 1.20462,3.92659 5.15239,4.86098 17.90077,4.23688 6.6,-0.3231 15.6,-1.12823 20,-1.78919 z m 53,0.78689 c 20.68985,-1.82556 25.718,-2.64263 26.2595,-4.26711 0.23175,-0.69526 -1.11054,-1.88806 -3.02469,-2.68785 -5.92956,-2.47752 -26.11841,-8.34789 -34.66527,-10.0797 -7.7447,-1.56928 -8.29051,-1.56396 -10.1277,0.0987 -1.60127,1.44914 -1.94184,3.10399 -1.94184,9.43569 0,4.22309 0.3,7.97835 0.66667,8.34501 0.94627,0.94627 3.68282,0.84504 22.83333,-0.84471 z M 491.6687,130.63717 c 8.08066,-2.39993 13.59923,-9.04574 11.67512,-14.05989 -2.03047,-5.29132 -28.58964,7.39527 -28.58964,13.65649 0,0.90044 0.3375,1.98212 0.75,2.40373 1.00818,1.03045 9.49663,-0.02 16.16452,-2.00033 z m 48.43481,-0.37562 c 1.36374,-0.51849 2.78023,-1.89011 3.14774,-3.04805 0.79971,-2.51965 -2.08784,-26.47963 -4.37972,-36.34158 -2.79954,-12.04642 -4.45464,-10.39137 -9.56034,9.56008 -4.40548,17.21523 -5.42205,26.76437 -3.0968,29.08963 1.88808,1.88807 9.76548,2.30773 13.88912,0.73992 z m 118.7668,-96.55728 c 0.47742,-14.72249 1.091,-20.75917 2.72544,-26.81395 2.86255,-10.60431 7.56013,-19.0625 13.25319,-23.86296 6.25199,-5.27176 6.99423,-8.50597 7.6507,-33.336707 0.66533,-25.165909 0.90406,-24.785753 -10.91611,-17.383109 -10.77461,6.747847 -48.858,32.136216 -69.32935,46.218556 -27.14436,18.67274 -36.5,25.74195 -36.5,27.57974 0,4.13839 16.94805,26.14327 28.35103,36.8102 5.67201,5.30589 7.25002,6.21266 13.29252,7.63835 9.17866,2.16564 11.88835,2.35059 32.85645,2.24259 l 18,-0.0927 0.61613,-19 z m -11.71786,-63.66461 c -0.39588,-0.64053 -0.93095,-4.45521 -1.18906,-8.47707 -0.36596,-5.70249 -0.10532,-7.86792 1.18381,-9.835388 0.9092,-1.387613 2.09271,-2.522932 2.63003,-2.522932 2.0492,0 4.97695,4.11783 4.97695,7 0,1.65 0.40478,3 0.89951,3 0.49473,0 3.26224,-1.59 6.15002,-3.53333 5.21807,-3.511506 6.97402,-3.896011 7.70994,-1.68827 0.47124,1.41373 -7.83456,10.4861 -13.15951,14.37404 -4.06253,2.9662 -7.96723,3.68036 -9.20169,1.68295 z m -70.57917,5.99342 c 57.11902,-37.495913 82.13124,-53.724215 97.30539,-63.133202 8.59347,-5.328523 16.15924,-10.33256 16.81283,-11.120082 1.55418,-1.872676 -0.62962,-6.201526 -6.1495,-12.189886 -6.65705,-7.22204 -8.5199,-6.60968 -36.27289,11.923753 -44.22834,29.535658 -79.31651,54.314057 -90.63494,64.004147 -10.66475,9.13045 -14.60732,17.63904 -12.2497,26.43646 0.33163,1.2375 1.25658,2.25 2.05544,2.25 0.79886,0 13.90888,-8.17704 29.13337,-18.17119 z m -31.41717,-54.843515 c 9.28713,-5.427091 17.15968,-11.298093 15.77068,-11.761093 -2.33995,-0.779983 -26.17261,12.663481 -26.17261,14.763377 0,1.997527 3.64756,0.944741 10.40193,-3.002284 z"
       id="path3383"
       inkscape:connector-curvature="0" />
    <path
       style="fill:#029003"
       d="m 462.44577,137.95427 c 0.76659,-10.11191 1.35591,-11.84622 5.58394,-16.43309 5.1267,-5.56181 11.77747,-8.97562 28.91615,-14.84252 7.31958,-2.50563 13.88882,-5.13397 14.59833,-5.84076 1.52056,-1.51475 9.55479,-29.4827 11.91974,-41.49384 2.80228,-14.23224 0.90255,-18.12137 -20.33988,-41.63979 -19.77293,-21.89148 -22.40343,-25.86619 -23.82509,-36 -0.38579,-2.75 -1.85577,-6.99032 -3.26661,-9.42293 -3.06018,-5.27644 -18.00015,-21.098916 -19.63258,-20.792268 -1.39168,0.261425 -0.93251,-19.594143 0.46524,-20.118135 0.48904,-0.183334 0.94241,-4.683334 1.00748,-10 0.0651,-5.316667 0.40258,-10.870502 0.75,-12.341856 0.36415,-1.542137 9.91411,-12.871851 22.54794,-26.750001 l 21.91626,-24.07481 22.65224,0 c 30.96229,0 32.59916,0.58795 43.28279,15.54675 1.98242,2.77572 4.66273,5.61316 5.95624,6.30542 2.97172,1.59042 6.6082,0.11224 24.12957,-9.80829 23.40839,-13.25375 24.30636,-13.47612 31.97767,-7.91905 4.97872,3.60657 6.81135,3.59242 16.16898,-0.12483 12.20157,-4.84698 16.50909,-3.77931 21.9059,5.42964 2.93648,5.01072 5.09036,6.09258 9.097,4.56926 2.15819,-0.82054 3.28904,-0.71002 5.13923,0.50227 5.80319,3.8024 17.35787,21.72256 17.35787,26.92035 0,1.452865 -0.95091,5.439875 -2.11314,8.860025 -1.89541,5.577738 -2.20078,9.618604 -2.96373,39.218455 -1.04267,40.45255 -1.07561,40.71914 -5.5883,45.23184 -6.27834,6.27834 -9.29977,16.71853 -13.96899,48.26816 -1.50586,10.175 -2.91527,18.725 -3.13202,19 -0.21675,0.275 -8.57053,0.76626 -18.56396,1.09168 -11.67498,0.38018 -19.13563,1.05525 -20.87167,1.88856 -4.62504,2.22004 -5.79819,6.36099 -5.79819,20.46634 0,11.87196 0.14092,12.78525 2.30706,14.95139 1.26888,1.26888 4.08138,2.61632 6.25,2.99431 9.73369,1.69658 68.17924,13.94966 70.2314,14.72398 2.23344,0.84272 2.28513,1.17621 2.15037,13.87361 l -0.13809,13.01013 -123.25358,0 -123.25357,0 0.398,-5.25 z m 143.80841,-5.03723 8,-1.21277 0.26451,-31.43549 c 0.14548,-17.28952 -0.0829,-31.7829 -0.5075,-32.2075 -0.4246,-0.4246 -7.06863,-0.12945 -14.76451,0.65589 -7.69587,0.78535 -14.95517,1.44122 -16.13177,1.4575 -1.66126,0.023 -3.77363,-2.59588 -9.45359,-11.7204 -14.75921,-23.70977 -16.90714,-25.60781 -16.90714,-14.94014 0,10.9255 7.06058,76.12231 9.08461,83.88652 0.52998,2.03301 2.19025,4.67582 3.6895,5.87291 2.59333,2.07068 3.35806,2.14442 15.72589,1.51638 7.15,-0.36307 16.6,-1.20588 21,-1.8729 z m 64,-0.27987 c 7.15,-0.80474 13.7875,-1.71168 14.75,-2.01542 3.13422,-0.98908 1.84968,-3.48585 -2.86679,-5.57217 -6.68919,-2.95894 -28.66772,-9.39302 -37.27395,-10.91172 -7.2524,-1.27979 -7.42554,-1.26122 -9.25,0.99189 -1.47544,1.82209 -1.85926,3.99353 -1.85926,10.51864 0,4.5224 0.3375,8.56877 0.75,8.99193 0.91667,0.94036 18.2031,-0.0282 35.75,-2.00315 z m -181.37266,-0.0818 c 6.29096,-1.407 8.00565,-2.27744 11.68703,-5.93279 3.79883,-3.77197 4.27681,-4.74 4,-8.10107 -0.29728,-3.60969 -0.51465,-3.83387 -3.99834,-4.12364 -5.09015,-0.42339 -17.96115,5.07331 -22.91559,9.78636 -3.65643,3.47827 -5.05722,7.52995 -3.23377,9.3534 1.1265,1.1265 6.73552,0.7455 14.46067,-0.98226 z m 52.27963,-1.3157 c 1.43987,-0.54744 2.81154,-2.05778 3.17155,-3.49221 1.37638,-5.48391 -4.48078,-42.7824 -7.14625,-45.50745 -1.2576,-1.28571 -1.60401,-1.28571 -2.84057,0 -3.11214,3.23582 -10.5917,32.92515 -10.5917,42.0426 0,6.18898 1.98821,7.92166 9.08989,7.92166 3.17895,0 6.92164,-0.43408 8.31708,-0.96463 z m 118.7158,-97.0354 c 0.54822,-17.16539 0.94458,-20.57751 3.31067,-28.5 3.30436,-11.06417 6.16903,-16.09987 12.15735,-21.371 6.91884,-6.09021 7.5971,-8.92505 8.17118,-34.152081 0.42733,-18.778192 0.28857,-21.690089 -1.0881,-22.832618 -0.9002,-0.747098 -2.47081,-1.026136 -3.65689,-0.649689 -2.51419,0.797971 -66.59447,43.380948 -91.01698,60.483098 -18.68543,13.08469 -23,16.60185 -23,18.74922 0,3.8182 9.18843,16.91446 21.88341,31.19041 13.73378,15.44411 18.4914,16.94097 53.11659,16.71175 l 19.5,-0.12909 0.62277,-19.5 z m -11.68728,-65.10439 c -1.3227,-2.14016 -1.70204,-13.52904 -0.52395,-15.73032 2.21648,-4.141534 6.08846,-1.494705 6.08846,4.16198 0,3.82792 2.46995,3.87089 7.18194,0.12493 4.31706,-3.43199 6.81806,-4.33256 6.81806,-2.45508 0,1.71005 -6.94004,8.77469 -11.7492,11.96015 -4.90755,3.25063 -6.7256,3.70154 -7.81531,1.93834 z m -90.84926,20.79156 c 5.45257,-3.47206 28.36377,-18.46408 50.91377,-33.3156 22.55,-14.851517 47.75,-31.18233 56,-36.290691 22.20538,-13.749468 27.46057,-17.381693 28.11046,-19.429108 0.62736,-1.976411 -4.64474,-10.456441 -9.1072,-14.648711 -5.17489,-4.86156 -9.38112,-3.12212 -36.9121,15.264551 -72.59551,48.483188 -96.88841,67.019549 -101.12677,77.163359 -2.47202,5.91639 -1.53882,17.56903 1.40702,17.56903 0.44057,0 5.26224,-2.84077 10.71482,-6.31283 z m -11.58623,-67.711419 c 8.51635,-5.019964 19,-12.73771 19,-13.98722 0,-2.894351 -9.41851,0.892316 -23.257,9.35037 -6.5165,3.982867 -8.59122,6.479638 -7.22339,8.692828 0.90485,1.464078 3.92703,0.396355 11.48039,-4.055978 z"
       id="path3381"
       inkscape:connector-curvature="0" />
    <path
       style="fill:#018701"
       d="m 484.30286,142.1361 c -20.3307,-1.16395 -22.46292,-2.2446 -20.98995,-10.63812 1.61411,-9.1978 7.44127,-11.45798 7.44127,-2.88624 0,1.23415 1.1358,3.31093 2.524,4.61508 2.49043,2.33963 2.63879,2.35457 11.15394,1.12341 4.74646,-0.68627 10.12934,-1.87425 11.96194,-2.63996 4.43914,-1.85479 9.36012,-9.58409 9.36012,-14.70178 l 0,-3.80422 -4.41422,0 c -2.58179,0 -8.08213,1.39047 -13.25,3.34955 -10.76629,4.08138 -13.70096,4.83129 -15.78184,4.03278 -4.31283,-1.65499 4.17071,-6.16885 25.15397,-13.38374 l 15.20792,-5.2291 1.51443,-4.63474 c 2.97478,-9.10399 9.68589,-36.25696 11.06143,-44.75428 l 1.39998,-8.64835 -4.54784,-5.61606 c -2.50131,-3.08883 -9.82002,-11.46606 -16.2638,-18.61606 -21.03811,-23.34383 -24.24466,-27.99077 -25.53127,-37 -1.1646,-8.15493 -3.95143,-12.98029 -12.68098,-21.957 -4.544,-4.67264 -8.68583,-9.253398 -9.20408,-10.179452 -1.58257,-2.827887 0.15858,-41.381679 1.9971,-44.221319 1.69331,-2.615355 35.54478,-39.761119 40.91095,-44.892229 l 3.39888,-3.25 16.26469,0.0618 c 21.63606,0.0822 29.99145,0.97328 33.49018,3.57145 4.1203,3.05976 13.45163,14.34468 12.97799,15.69503 -0.63533,1.81134 -3.26417,0.91203 -9.93229,-3.39778 -9.15525,-5.91733 -13.73935,-6.93052 -31.35652,-6.93052 l -15.22232,0 -9.93184,12.25 c -23.64547,29.164498 -26.40043,34.129473 -27.05036,48.75 -0.57956,13.037633 0.60779,16.779833 7.76508,24.473382 7.73989,8.319808 10.67151,13.148968 13.95759,22.991898 2.90602,8.70451 5.92461,13.69427 14.0092,23.15739 5.53904,6.48351 10.52028,15.79831 11.60552,21.70203 2.98615,16.24484 1.96232,-29.97482 -1.58901,-71.733958 -1.11833,-13.150093 -1.74737,-25.816089 -1.39788,-28.146659 0.84483,-5.633725 3.46044,-9.71679 8.65625,-13.512705 5.38384,-3.933287 44.72146,-23.718378 50.77564,-25.537918 2.4791,-0.74507 9.00745,-3.87727 14.50745,-6.96045 20.2354,-11.34352 28.2118,-15.43301 30.10151,-15.43301 1.06434,0 4.13729,1.81975 6.8288,4.04388 5.64429,4.66417 6.51577,4.65844 18.25017,-0.11992 3.94927,-1.60818 8.37138,-2.92396 9.82693,-2.92396 3.73351,0 8.49259,4.99212 8.49259,8.90845 0,4.06507 -4.31267,7.44631 -38,29.79301 -24.78959,16.444328 -33.21777,22.370126 -25,17.57733 49.1511,-28.66605 73.79203,-42.27879 76.53043,-42.27879 2.37469,0 8.10575,5.96904 11.94515,12.44117 1.93843,3.26765 3.52442,6.30515 3.52442,6.75 0,2.06046 -2.66447,0.29781 -8.41437,-5.56643 -9.34408,-9.5299 -8.84936,-9.4538 -18.26452,-2.8093 -4.43021,3.12651 -22.17732,15.243189 -39.43802,26.925958 -17.2607,11.682769 -43.53309,29.703705 -58.38309,40.046525 l -27,18.805127 -0.30159,9.95347 c -0.36608,12.08179 0.30057,16.45348 2.50905,16.45348 2.48481,0 7.52927,-3.1587 54.29254,-33.99652 58.27686,-38.430395 87.5809,-57.00348 89.93833,-57.00348 2.04115,0 2.46099,5.382119 2.84397,36.457894 0.52212,42.366576 0.32874,44.224376 -5.25808,50.514826 -6.42228,7.23115 -9.55325,18.6442 -13.61714,49.63737 l -2.24352,17.1101 -17.08178,0.58163 c -17.25471,0.58752 -23.35031,1.67994 -26.05591,4.66959 -1.51622,1.67541 -3.50003,18.7183 -3.51732,30.21732 l -0.009,5.68872 4.75,0.65823 c 6.71447,0.93046 52.36239,9.9619 63.14182,12.49261 8.90771,2.09128 9.01845,2.1549 11.04803,6.34746 1.12757,2.32925 2.29922,7.13508 2.60366,10.67962 0.30444,3.54455 0.74545,7.68213 0.98001,9.19463 l 0.42648,2.75 -28.725,-0.0223 c -28.88158,-0.0224 -100.13145,-2.46488 -105.725,-3.62427 -1.65,-0.34199 -3.55755,-1.06241 -4.23899,-1.60092 -2.38178,-1.8822 -0.14414,-2.6665 6.0228,-2.111 6.02125,0.54238 39.54733,-2.14068 40.66364,-3.25427 0.3039,-0.30316 0.68302,-14.35373 0.84247,-31.22349 0.23768,-25.14492 0.036,-31.0195 -1.11894,-32.59903 -1.34871,-1.84447 -2.08707,-1.88018 -17.28993,-0.83618 -9.24729,0.63503 -16.32941,0.72073 -16.95441,0.20517 -0.59035,-0.48697 -5.31535,-7.64034 -10.5,-15.89639 -15.3654,-24.46786 -17.54505,-28.91904 -14.94731,-30.52454 0.53864,-0.33289 1.88864,-0.11862 3,0.47617 2.53279,1.35551 2.54093,0.37603 0.0426,-5.12974 -2.32367,-5.12091 -2.59302,-8.8592 -0.63832,-8.8592 2.5145,0 14.63299,15.10244 27.45311,34.21293 5.81081,8.66195 5.63134,8.5731 21.66325,10.72439 13.63415,1.82953 48.57068,2.6304 51.28878,1.17572 2.14453,-1.14772 2.21122,-1.68127 2.21122,-17.69038 0,-26.12697 3.64793,-38.90934 14.32938,-50.21026 2.96959,-3.14182 5.92737,-6.72717 6.57283,-7.96745 3.32255,-6.38442 4.12266,-49.657043 0.97623,-52.797937 -1.49433,-1.491696 -1.93745,-1.457558 -5.6473,0.435067 -2.21415,1.129577 -22.18445,14.142286 -44.37844,28.91713 -44.66599,29.73477 -54.97162,36.15571 -71.81433,44.74398 -14.95992,7.62846 -18.44845,10.8086 -21.03201,19.17318 -3.15801,10.22445 -2.45597,17.28362 1.71887,17.28362 0.72861,0 1.76493,-1.15774 2.30291,-2.57276 1.54102,-4.05318 4.21219,-2.70209 6.14244,3.10687 2.03378,6.12053 6.13851,30.79941 8.39377,50.46589 2.07897,18.12923 2.35102,43.00254 0.52879,48.34677 -2.24213,6.57572 -4.55014,7.06776 -34.09266,7.26811 -14.025,0.0951 -32.2281,-0.21226 -40.45132,-0.68305 z m 180.45132,-7.95791 c 21.94307,-1.64243 28.41594,-3.71043 23.37543,-7.46814 -2.59827,-1.93701 -23.71567,-8.85763 -36.37543,-11.92099 -18.65274,-4.51353 -19.90816,-4.75958 -20.96181,-4.1084 -0.61405,0.37951 -1.03819,5.06041 -1.03819,11.45772 l 0,10.81608 3.25,1.62787 c 3.44609,1.72609 3.25794,1.72849 31.75,-0.40414 z m -120.10413,-1.57695 c 1.12913,-0.36089 1.26768,-2.26983 0.72505,-9.98937 -0.72822,-10.35972 -4.87159,-36.31456 -6.46574,-40.50251 -0.54326,-1.4272 -1.56306,-7.8397 -2.26621,-14.25 -0.70315,-6.4103 -1.56249,-11.65509 -1.90963,-11.65509 -0.34715,0 -1.4303,4.6125 -2.407,10.25 -0.9767,5.6375 -4.01824,20.375 -6.75898,32.75 -2.74074,12.375 -5.23046,24.83874 -5.53271,27.6972 -0.60696,5.74005 -0.58931,5.75521 7.71935,6.63245 3.7638,0.39738 14.60725,-0.20119 16.89587,-0.93268 z m -5.29341,-179.625607 2.69656,-1.228637 -2.32537,-0.548946 c -4.80749,-1.134894 -3.09386,-4.065164 7.52635,-12.869897 3.89534,-3.229447 3.9134,-3.272974 0.69026,-1.66348 -4.44788,2.221079 -10.97526,8.223155 -12.81782,11.786281 -1.16633,2.255427 -1.23561,3.213263 -0.31282,4.325151 1.43075,1.723945 1.21765,1.714585 4.54284,0.199528 z m 13.71071,-33.987796 c 7.42378,-5.344038 13.65282,-10.117696 13.84231,-10.608129 0.18948,-0.490434 8.33202,-6.605093 18.09452,-13.588128 24.69046,-17.66089 24.10286,-17.83512 -3.75,-1.11191 -9.35,5.61386 -22.56166,13.090974 -29.35924,16.615809 -16.06294,8.329315 -20.14076,11.751677 -20.14076,16.903381 0,6.942624 0.56404,6.725326 21.31317,-8.211023 z"
       id="path3379"
       inkscape:connector-curvature="0" />
    <path
       style="fill:#007d00"
       d="m 500.75418,142.19592 c -33.11531,-1.0712 -37.90161,-2.529 -36.59854,-11.14714 0.3613,-2.38948 1.04346,-4.96466 1.51592,-5.72263 1.20244,-1.92906 3.08262,-0.47659 3.08262,2.38137 0,1.31187 1.0328,3.58592 2.2951,5.05344 2.06946,2.40588 2.93308,2.65865 8.78383,2.57088 10.13984,-0.15212 16.95712,-1.78792 20.1334,-4.831 4.06986,-3.89917 6.97234,-10.49166 6.6012,-14.99352 -0.30358,-3.68235 -0.42731,-3.79667 -3.89857,-3.60206 -1.97177,0.11054 -7.82177,1.54442 -13,3.1864 -5.17823,1.64197 -11.21496,3.30961 -13.41496,3.70586 -3.58479,0.64568 -3.86311,0.55519 -2.68125,-0.8717 1.66605,-2.01145 12.27845,-6.38681 27.54893,-11.35806 9.96497,-3.24406 12.02294,-4.26431 12.83603,-6.36349 1.65353,-4.26899 13.79629,-53.24726 13.79629,-55.64785 0,-1.54319 -4.84638,-7.49338 -15.11836,-18.56171 -24.06117,-25.92656 -31.84443,-36.63794 -31.87187,-43.8623 -0.0252,-6.63181 -3.21248,-12.18491 -12.08795,-21.06038 -8.52138,-8.521374 -8.78518,-8.925932 -9.48795,-14.550776 -0.39759,-3.182137 -0.46779,-13.325836 -0.15601,-22.541551 l 0.56686,-16.755847 22.28885,-24.074386 22.28885,-24.07439 23.18592,0.31459 c 26.2725,0.35648 23.41626,-0.52758 32.6341,10.10089 2.76008,3.18245 4.79076,6.01384 4.51263,6.29197 -0.27812,0.27813 -3.37635,-1.29422 -6.88495,-3.4941 -9.32208,-5.84493 -15.80842,-7.19546 -32.95832,-6.86232 l -14.31973,0.27816 -5.88362,7 c -10.97288,13.05492 -24.19505,30.530285 -27.38483,36.193745 -4.83659,8.587385 -6.54847,21.49654 -4.26352,32.150888 0.84725,3.950573 2.56354,6.697905 8.54786,13.682867 8.06663,9.41547 10.51187,13.46042 12.37933,20.47812 1.80967,6.80055 6.3917,14.72125 13.01271,22.49438 7.75669,9.10643 11.42474,16.18278 13.3941,25.83972 1.74699,8.56656 2.17997,9.66028 3.82424,9.66028 1.48372,0 0.27699,-51.61302 -1.74183,-74.5 -2.92016,-33.105352 -2.99566,-37.537945 -0.72672,-42.667256 1.34583,-3.042482 3.49373,-5.591442 6.38883,-7.581774 2.39876,-1.649104 17.8735,-9.75644 34.38831,-18.01631 16.51481,-8.25987 34.28981,-17.47704 39.5,-20.48259 12.61182,-7.27527 17.56534,-9.75207 19.50383,-9.75207 0.88573,0 3.74512,1.8 6.35419,4 2.98164,2.51415 5.74971,4 7.45184,4 1.48944,0 6.76058,-1.65744 11.71363,-3.6832 7.27289,-2.97455 9.51911,-3.50259 11.67473,-2.7445 3.12399,1.09865 6.58551,6.45456 5.68621,8.7981 -1.52469,3.97329 -50.40432,36.745703 -93.0584,62.393039 -18.27863,10.990704 -28.95259,16.468348 -31.19023,16.006147 -2.27173,-0.469245 2.54838,-4.932768 14.97879,-13.870661 10.00358,-7.192919 12.56173,-9.529011 11.5465,-10.544239 -0.70131,-0.701311 -8.72312,3.720841 -20.31619,11.199637 -9.21257,5.943108 -13.72929,11.456253 -13.19671,16.108024 0.52808,4.612493 4.40351,4.273493 14.59758,-1.276903 9.00293,-4.901853 39.1107,-22.39574 73.2273,-42.548152 37.88525,-22.378522 57.95108,-32.902372 46.81568,-24.553222 -5.07244,3.80323 -28.79598,20.115661 -79.57465,54.71593 l -46.22877,31.5 -0.006,13.05 c -0.008,17.73735 0.79409,18.40325 13.01973,10.80454 4.11078,-2.55501 28.39914,-18.44786 53.97414,-35.31745 62.43037,-41.179847 78.96242,-51.453984 80.43887,-49.990178 1.66994,1.65564 2.8384,41.167202 1.80803,61.138958 l -0.96512,18.70686 -4.47134,4.97321 c -6.45599,7.18062 -9.07639,16.49712 -13.20347,46.9433 -1.35263,9.97856 -2.7441,18.60363 -3.09216,19.1668 -0.38164,0.61745 -6.03565,1.02396 -14.24194,1.02396 -15.40856,0 -25.71796,1.44506 -28.22987,3.95697 -1.34616,1.34616 -1.98526,5.20104 -3.01442,18.18222 -1.44097,18.17546 -0.99304,20.86081 3.47971,20.86081 7.44352,0 67.38016,11.79958 71.71157,14.11768 2.66929,1.42856 4.54948,5.82686 5.75905,13.4721 0.60131,3.80062 1.30529,8.22025 1.56441,9.8214 l 0.47112,2.91118 -40.25723,-0.68312 c -22.14148,-0.37572 -45.43224,-1.11278 -51.75724,-1.63791 -6.325,-0.52513 -18.01819,-1.45204 -25.98487,-2.0598 -7.96668,-0.60777 -15.12964,-1.46586 -15.91768,-1.90687 -0.78805,-0.44101 8.43015,-1.13039 20.48487,-1.53196 12.05472,-0.40156 22.48018,-1.18405 23.16768,-1.73885 1.95731,-1.57953 1.79071,-64.08028 -0.17605,-66.04704 -1.16279,-1.16279 -4.54576,-1.33599 -18.32496,-0.9382 L 581.10426,67.47073 572.0326,52.5875 C 561.81241,35.81998 556.02026,24.60486 557.04926,23.57586 c 0.38096,-0.38096 1.51835,0.0546 2.52753,0.96787 4.55891,4.12576 5.38961,0.98625 1.67739,-6.33946 -2.62387,-5.17797 -3.05633,-7 -1.66142,-7 1.21229,0 12.63676,14.68301 21.6051,27.7674 4.70024,6.85743 8.88609,11.86889 10.69479,12.80421 3.82478,1.97787 23.41407,3.34687 48.55251,3.3931 12.44313,0.0229 19.4207,-0.33639 19.84429,-1.02177 0.35931,-0.58138 0.74032,-9.24388 0.84668,-19.25 0.27113,-25.50767 2.86277,-34.06974 14.17698,-46.83687 9.02324,-10.18197 8.89565,-9.63053 8.91992,-38.552821 0.0244,-29.050649 -0.0281,-29.247365 -6.77471,-25.393312 -2.31228,1.320907 -21.30414,13.772036 -42.20414,27.669174 -40.04776,26.629149 -60.3591,39.176379 -76.26311,47.111169 -13.10374,6.53768 -18.3917,11.70773 -21.13633,20.66506 -2.81151,9.17557 -2.72547,13.11066 0.35399,16.19011 3.1293,3.12931 5.28753,3.11473 6.7274,-0.0454 0.6265,-1.375 1.46837,-2.5 1.87085,-2.5 1.67123,0 6.23804,24.55043 9.5799,51.5 1.00806,8.12919 1.76358,21.35519 1.80168,31.53976 0.0924,24.68832 -0.49972,25.39541 -21.93438,26.19485 -7.15,0.26667 -23.125,0.15734 -35.5,-0.24296 z m 175.38375,-8.02742 c 11.41192,-0.95362 16.00856,-2.67621 15.41657,-5.77736 -0.43673,-2.28787 -12.2309,-6.58465 -39.11033,-14.24844 -16.83938,-4.80119 -22.08122,-5.94779 -23,-5.03102 -0.78415,0.78243 -1.18999,5.16674 -1.18999,12.85562 0,15.10887 -0.83905,14.56054 21,13.72374 8.8,-0.33718 20.89769,-1.02233 26.88375,-1.52254 z m -131.70292,0.42357 c 3.08315,-0.82688 3.59908,-2.99766 2.34771,-9.878 -2.53128,-13.91768 -6.21428,-39.22033 -8.15265,-56.0098 -1.14297,-9.9 -2.26619,-19.0125 -2.49606,-20.25 -0.61515,-3.31171 -2.2151,-2.73697 -2.78379,1 -2.4539,16.12482 -5.43303,31.72782 -9.68987,50.75 -2.76931,12.375 -5.1186,24.97249 -5.22064,27.99443 l -0.18553,5.49443 3.5,0.62393 c 4.64403,0.82787 19.92841,1.0132 22.68083,0.27501 z m 3.15383,-87.52246 c -0.18406,-1.30094 -0.78466,-2.27661 -1.33466,-2.16816 -1.28244,0.25287 -1.84757,2.95468 -1.05179,5.02845 0.90364,2.35485 2.80235,0.0791 2.38645,-2.86029 z m -3.18462,-120.178088 c 7.68122,-6.177053 24.88004,-18.895868 42.84996,-31.688272 24.66718,-17.56004 31.35647,-23.24073 25.59197,-21.73328 -1.04942,0.27443 -13.53692,7.46711 -27.75,15.98375 -14.21308,8.51663 -30.76871,18.132079 -36.79029,21.367666 -16.54591,8.890649 -20.95037,14.032378 -17.5165,20.448625 1.81365,3.388834 5.3839,2.240656 13.61486,-4.378489 z m 138.5658,-43.968692 c -5.7543,-5.82668 -6.29946,-7.01406 -3.00184,-6.53811 1.97273,0.28473 9.76778,9.10673 9.78096,11.06955 0.0115,1.70598 -1.8441,0.46565 -6.77912,-4.53144 z"
       id="path3377"
       inkscape:connector-curvature="0" />
  </g>
</svg>
